HIERARCHY
ROOT Hips
{
	OFFSET 0.000000 0.000000 0.000000
	CHANNELS 6 Xposition Yposition Zposition Zrotation Yrotation Xrotation 
	JOINT LHipJoint
	{
		OFFSET 0.000000 0.000000 0.000000
		CHANNELS 3 Zrotation Yrotation Xrotation
		JOINT LeftUpLeg
		{
			OFFSET 1.363060 -1.794630 0.839290
			CHANNELS 3 Zrotation Yrotation Xrotation
			JOINT LeftLeg
			{
				OFFSET 2.448110 -6.726130 0.000000
				CHANNELS 3 Zrotation Yrotation Xrotation
				JOINT LeftFoot
				{
					OFFSET 2.562200 -7.039590 0.000000
					CHANNELS 3 Zrotation Yrotation Xrotation
					JOINT LeftToeBase
					{
						OFFSET 0.157640 -0.433110 2.322550
						CHANNELS 3 Zrotation Yrotation Xrotation
						End Site
						{
							OFFSET 0.000000 0.000000 0.000000
						}
					}
				}
			}
		}
	}
	JOINT RHipJoint
	{
		OFFSET 0.000000 0.000000 0.000000
		CHANNELS 3 Zrotation Yrotation Xrotation
		JOINT RightUpLeg
		{
			OFFSET -1.305520 -1.794630 0.839290
			CHANNELS 3 Zrotation Yrotation Xrotation
			JOINT RightLeg
			{
				OFFSET -2.542530 -6.985550 0.000000
				CHANNELS 3 Zrotation Yrotation Xrotation
				JOINT RightFoot
				{
					OFFSET -2.568260 -7.056230 0.000000
					CHANNELS 3 Zrotation Yrotation Xrotation
					JOINT RightToeBase
					{
						OFFSET -0.164730 -0.452590 2.363150
						CHANNELS 3 Zrotation Yrotation Xrotation
						End Site
						{
							OFFSET 0.000000 0.000000 0.000000
						}
					}
				}
			}
		}
	}
}
MOTION
Frames: 25
Frame Time: 0.008333
-4.762156 17.236125 0.401855 6.714106 -61.252812 7.735335 -9.114000 1.850254 7.408368 -7.644331 -12.855706 -16.278334 -2.981739 -2.010495 -1.457914 -0.414486 -1.999118 1.251828 0.122600 -0.000000 -43.984300 10.611291 -2.386260 -0.007698 6.400964 -22.409904 -15.583684 1.847201 0.813827 6.056362 -4.263389 -21.305544 -4.496828 -2.706299 -0.000000 -55.134200
-4.764286 17.228578 0.394615 7.021020 -61.977541 7.542940 -9.118748 1.877241 7.376310 -7.825775 -12.472835 -16.504841 -2.989189 -2.018137 -1.251506 -0.381964 -1.824240 0.961107 0.144801 0.000000 -43.862100 10.601815 -2.348190 0.121574 6.303733 -21.965968 -16.056217 1.846814 0.789650 6.596287 -4.241687 -20.993908 -4.871768 -2.529000 0.000000 -55.034100
-4.766916 17.220857 0.386019 7.381243 -62.723827 7.304242 -9.123834 1.905068 7.335767 -8.032806 -12.051660 -16.742162 -3.000578 -2.025000 -1.032713 -0.350605 -1.664352 0.672093 0.163300 0.000000 -43.751100 10.594681 -2.308095 0.259316 6.183858 -21.486219 -16.527181 1.841988 0.766478 7.131517 -4.220525 -20.680946 -5.252667 -2.353900 -0.000000 -54.922201
-4.770051 17.213109 0.376051 7.794160 -63.495032 7.027664 -9.129591 1.933618 7.288643 -8.260066 -11.594072 -17.003107 -3.015477 -2.031352 -0.799968 -0.319904 -1.514396 0.384394 0.178999 0.000000 -43.640500 10.588640 -2.266883 0.410104 6.049499 -20.954597 -17.009690 1.832119 0.744618 7.665276 -4.202602 -20.377305 -5.639484 -2.183201 -0.000000 -54.785000
-4.772844 17.205519 0.364501 8.254134 -64.288469 6.698348 -9.138348 1.961220 7.228009 -8.504651 -11.097177 -17.260399 -3.032492 -2.035619 -0.557181 -0.289858 -1.375136 0.099081 0.191900 0.000000 -43.534200 10.582370 -2.224379 0.561806 5.897860 -20.397356 -17.477020 1.818986 0.722694 8.190584 -4.183382 -20.069137 -6.022729 -2.017300 -0.000000 -54.634700
-4.775456 17.198183 0.351480 8.762732 -65.106754 6.327170 -9.150081 1.987892 7.157738 -8.759329 -10.569112 -17.530760 -3.050978 -2.038190 -0.301420 -0.259614 -1.239050 -0.185540 0.202801 0.000000 -43.419100 10.574591 -2.181351 0.719680 5.738298 -19.798251 -17.947770 1.802039 0.700937 8.713866 -4.166185 -19.769322 -6.403235 -1.858000 -0.000000 -54.459500
-4.777487 17.191256 0.336998 9.317297 -65.949680 5.913414 -9.165574 2.012825 7.077607 -9.018669 -10.015899 -17.811474 -3.069866 -2.038615 -0.033099 -0.228567 -1.101653 -0.470631 0.212500 -0.000001 -43.291200 10.564005 -2.137931 0.880879 5.574877 -19.161894 -18.421389 1.781933 0.678730 9.236951 -4.150676 -19.478120 -6.777501 -1.706300 -0.000000 -54.261700
-4.778452 17.184786 0.321108 9.915221 -66.814890 5.450775 -9.185991 2.035079 6.985231 -9.277570 -9.441264 -18.089491 -3.087898 -2.036065 0.245977 -0.196371 -0.960492 -0.756039 0.220900 -0.000000 -43.152099 10.549601 -2.094089 1.039084 5.409117 -18.501645 -18.886844 1.759698 0.655222 9.758067 -4.134934 -19.191037 -7.139183 -1.562999 0.000000 -54.051300
-4.778202 17.178846 0.303981 10.556286 -67.701857 4.939143 -9.211568 2.054350 6.881525 -9.531131 -8.851285 -18.363627 -3.104258 -2.030467 0.534225 -0.162537 -0.811351 -1.041703 0.228500 -0.000000 -43.001401 10.530638 -2.050045 1.192940 5.245115 -17.820521 -19.346188 1.735888 0.629974 10.280091 -4.118896 -18.908993 -7.486075 -1.428600 -0.000000 -53.832500
-4.776872 17.173431 0.285818 11.245945 -68.611713 4.382846 -9.241450 2.070878 6.771249 -9.775837 -8.255592 -18.648354 -3.118775 -2.022510 0.831811 -0.126307 -0.647537 -1.327776 0.236000 -0.000000 -42.834800 10.506724 -2.006119 1.347397 5.088070 -17.107637 -19.818295 1.710072 0.602969 10.811242 -4.105012 -18.640619 -7.819601 -1.303799 0.000000 -53.601800
-4.774152 17.168507 0.266731 11.985433 -69.541301 3.770211 -9.276192 2.084292 6.651875 -10.009829 -7.654220 -18.926408 -3.130731 -2.011787 1.133166 -0.087709 -0.468726 -1.611980 0.243300 0.000000 -42.663201 10.477804 -1.962203 1.496286 4.936864 -16.379042 -20.288928 1.683344 0.573563 11.348611 -4.090662 -18.378024 -8.135580 -1.188100 -0.000001 -53.372800
-4.770238 17.164015 0.246901 12.785514 -70.489923 3.094554 -9.315063 2.095055 6.525732 -10.232453 -7.050949 -19.201384 -3.140231 -1.998854 1.435070 -0.046446 -0.271435 -1.892159 0.250600 0.000000 -42.489000 10.444238 -1.918477 1.641657 4.792306 -15.632256 -20.764582 1.655515 0.541803 11.895248 -4.076460 -18.123424 -8.434168 -1.081400 0.000000 -53.146100
-4.765143 17.159908 0.226432 13.657447 -71.455450 2.341024 -9.357623 2.103467 6.392906 -10.444465 -6.446224 -19.466686 -3.147308 -1.983974 1.732472 -0.002477 -0.054356 -2.166036 0.258200 0.000000 -42.319700 10.406559 -1.874790 1.782263 4.652729 -14.872934 -21.241809 1.626863 0.507552 12.451529 -4.061490 -17.873356 -8.716108 -0.982800 0.000000 -52.926300
-4.759280 17.156024 0.205439 14.621107 -72.437895 1.499421 -9.402619 2.110558 6.257215 -10.647869 -5.841977 -19.734816 -3.152761 -1.968071 2.024088 0.044379 0.184492 -2.432450 0.266100 0.000000 -42.156499 10.365400 -1.831462 1.924276 4.518178 -14.089151 -21.734741 1.596370 0.471407 13.021921 -4.048027 -17.634945 -8.985224 -0.891700 0.000000 -52.705700
-4.752575 17.152293 0.183866 15.701167 -73.432697 0.534115 -9.449900 2.116653 6.115804 -10.845779 -5.234123 -19.986952 -3.156738 -1.950985 2.302904 0.093803 0.443517 -2.688739 0.274200 -0.000000 -42.007800 10.321873 -1.787671 2.062219 4.382266 -13.297025 -22.225874 1.564677 0.433226 13.601526 -4.033022 -17.397168 -9.241510 -0.806200 0.000000 -52.491400
-4.745333 17.148564 0.161689 16.931790 -74.438205 -0.586564 -9.498537 2.122782 5.970014 -11.041732 -4.620918 -20.225724 -3.160077 -1.933171 2.567312 0.145600 0.721411 -2.934438 0.282300 -0.000000 -41.874600 10.276889 -1.743241 2.198587 4.242142 -12.493594 -22.717750 1.531236 0.393591 14.190904 -4.016992 -17.160651 -9.489284 -0.724999 0.000000 -52.278000
-4.737879 17.144730 0.138816 18.359418 -75.452611 -1.904462 -9.547488 2.130123 5.821622 -11.239489 -4.000729 -20.457189 -3.163815 -1.915066 2.816859 0.199541 1.015983 -3.170194 0.290299 0.000000 -41.755100 10.231417 -1.697764 2.337022 4.094106 -11.672625 -23.215583 1.495106 0.353282 14.790821 -4.000988 -16.927905 -9.732768 -0.646800 0.000000 -52.057900
-4.730080 17.140784 0.115150 20.030701 -76.472211 -3.479611 -9.596709 2.139183 5.666732 -11.440126 -3.366571 -20.662352 -3.167999 -1.896001 3.046652 0.254807 1.321197 -3.395587 0.297700 0.000000 -41.653900 10.186462 -1.649964 2.470662 3.934940 -10.851311 -23.696965 1.457310 0.312816 15.391095 -3.981601 -16.687178 -9.970937 -0.570599 0.000000 -51.841500
-4.722695 17.136298 0.090285 22.064551 -77.497787 -5.401478 -9.642780 2.153075 5.516054 -11.656681 -2.725923 -20.887259 -3.175974 -1.877660 3.267773 0.311799 1.637345 -3.616190 0.304400 0.000000 -41.551300 10.143682 -1.599586 2.618940 3.755998 -9.990670 -24.214315 1.413798 0.272806 16.018037 -3.966241 -16.458718 -10.221565 -0.493400 0.000000 -51.587499
-4.715375 17.131482 0.064204 24.532507 -78.524334 -7.768546 -9.686285 2.172165 5.360086 -11.882980 -2.065489 -21.088716 -3.186472 -1.858226 3.469253 0.368899 1.953614 -3.829609 0.309600 -0.000001 -41.459800 10.104538 -1.544528 2.764740 3.558935 -9.128302 -24.716075 1.367635 0.234288 16.644260 -3.947239 -16.219009 -10.472944 -0.416100 0.000000 -51.332500
-4.708413 17.126208 0.036662 27.590298 -79.550559 -10.726955 -9.723822 2.199193 5.202606 -12.124389 -1.385495 -21.283305 -3.201230 -1.838032 3.654668 0.425752 2.266050 -4.038954 0.312900 0.000000 -41.371000 10.071807 -1.483166 2.914692 3.340300 -8.251569 -25.221210 1.317384 0.197936 17.279242 -3.926626 -15.972580 -10.731638 -0.337400 -0.000000 -51.065500
-4.701938 17.120381 0.007437 31.436228 -80.572591 -14.472520 -9.750733 2.236915 5.044848 -12.381998 -0.684240 -21.476095 -3.221271 -1.816998 3.823510 0.481762 2.570001 -4.244995 0.314100 0.000000 -41.282400 10.049839 -1.413224 3.070889 3.099768 -7.356549 -25.735736 1.262500 0.164477 17.924651 -3.904588 -15.719254 -10.998534 -0.257501 0.000000 -50.787900
-4.695855 17.114026 -0.023573 36.321783 -81.581884 -19.259934 -9.760153 2.287900 4.885451 -12.653711 0.044316 -21.663485 -3.247244 -1.794967 3.974431 0.535949 2.858873 -4.448208 0.312900 -0.000000 -41.197000 10.045428 -1.332485 3.232363 2.840610 -6.446179 -26.256033 1.203476 0.134117 18.578529 -3.879894 -15.454760 -11.272039 -0.176500 0.000000 -50.509800
-4.690366 17.107097 -0.056490 42.578577 -82.560681 -25.416910 -9.741279 2.354004 4.724593 -12.935912 0.801928 -21.849594 -3.279933 -1.772860 4.106164 0.587620 3.129244 -4.647525 0.309400 0.000000 -41.117500 10.068566 -1.239626 3.402208 2.567818 -5.516149 -26.788593 1.140573 0.106178 19.241777 -3.852870 -15.180374 -11.550482 -0.095500 0.000000 -50.237200
-4.685370 17.099605 -0.091313 50.575338 -83.474707 -33.312530 -9.681384 2.433780 4.560075 -13.222375 1.591135 -22.032975 -3.319673 -1.752551 4.218762 0.635764 3.377511 -4.840364 0.304000 0.000000 -41.050100 10.130885 -1.136244 3.583206 2.289143 -4.566220 -27.335381 1.075174 0.078006 19.912674 -3.823789 -14.898242 -11.831111 -0.015400 0.000000 -49.979000
